# xmcd
#
# Track frame offsets: 
#        150
#        17598
#        33537
#        46789
#        67747
#        92014
#        108840
#        118904
#        130617
#        146200
#        172286
#        190849
#        208838
#        224281
#        239820
#        253618
#        269768
#        285685
#        302445
#        322815
#
# Disc length: 4524 seconds
#
# Revision: 0
# Processed by: cddbd v1.5.2PL0 Copyright (c) Steve Scherf et al.
# Submitted via: ExactAudioCopy v0.99pb4
#
DISCID=2d11aa14
DTITLE=Johan Verminnen - 60 - CD 1 - Van Brussel Naar De Wereld
DYEAR=2010
DGENRE=Folk
TTITLE0=Brussel
TTITLE1=In De Rue Des Bouchers
TTITLE2=Vakantie In Mijn Straat
TTITLE3=De Drie Musketiers
TTITLE4=Tussen Spelers En Drinkers
TTITLE5=Hoofdpijn
TTITLE6=Vierhoog In De Wolken
TTITLE7=Een Beetje Dorp
TTITLE8=Mijn Stad Heeft Slecht Geslapen (Versie 2007)
TTITLE9=Madeleine, La Marollienne
TTITLE10=Boulevard Du Cafard
TTITLE11=Ik Wil De Wereld Zien
TTITLE12=Bar Tropical
TTITLE13=Mambo King
TTITLE14=Zingen Tot Morgenvroeg
TTITLE15=De Poolse Kapitein (Versie 2007)
TTITLE16=De Tuin
TTITLE17=In Mijn Kamer
TTITLE18=Zeiler Ver Van Huis
TTITLE19=De Wind
EXTD=
EXTT0=
EXTT1=
EXTT2=
EXTT3=
EXTT4=
EXTT5=
EXTT6=
EXTT7=
EXTT8=
EXTT9=
EXTT10=
EXTT11=
EXTT12=
EXTT13=
EXTT14=
EXTT15=
EXTT16=
EXTT17=
EXTT18=
EXTT19=
PLAYORDER=
